<?xml version="1.0" encoding="UTF-8" standalone="yes"?><svg xmlns="http://www.w3.org/2000/svg" xmlns:xlink="http://www.w3.org/1999/xlink" height="415px" style="width:642px;height:415px;" version="1.1" viewBox="0 0 642 415" width="642px"><defs/><g><line style="stroke: #CCCCCC; stroke-width: 1.0;" x1="43" x2="43" y1="45.9375" y2="130.5"/><line style="stroke: #CCCCCC; stroke-width: 1.0; stroke-dasharray: 1.0,4.0;" x1="43" x2="43" y1="130.5" y2="158.5"/><line style="stroke: #CCCCCC; stroke-width: 1.0;" x1="43" x2="43" y1="158.5" y2="195.7813"/><line style="stroke: #CCCCCC; stroke-width: 1.0; stroke-dasharray: 1.0,4.0;" x1="43" x2="43" y1="195.7813" y2="223.7813"/><line style="stroke: #CCCCCC; stroke-width: 1.0;" x1="43" x2="43" y1="223.7813" y2="298.3438"/><line style="stroke: #CCCCCC; stroke-width: 1.0; stroke-dasharray: 1.0,4.0;" x1="43" x2="43" y1="298.3438" y2="326.3438"/><line style="stroke: #CCCCCC; stroke-width: 1.0;" x1="43" x2="43" y1="326.3438" y2="373.625"/><line style="stroke: #CCCCCC; stroke-width: 1.0;" x1="291" x2="291" y1="45.9375" y2="130.5"/><line style="stroke: #CCCCCC; stroke-width: 1.0; stroke-dasharray: 1.0,4.0;" x1="291" x2="291" y1="130.5" y2="158.5"/><line style="stroke: #CCCCCC; stroke-width: 1.0;" x1="291" x2="291" y1="158.5" y2="195.7813"/><line style="stroke: #CCCCCC; stroke-width: 1.0; stroke-dasharray: 1.0,4.0;" x1="291" x2="291" y1="195.7813" y2="223.7813"/><line style="stroke: #CCCCCC; stroke-width: 1.0;" x1="291" x2="291" y1="223.7813" y2="298.3438"/><line style="stroke: #CCCCCC; stroke-width: 1.0; stroke-dasharray: 1.0,4.0;" x1="291" x2="291" y1="298.3438" y2="326.3438"/><line style="stroke: #CCCCCC; stroke-width: 1.0;" x1="291" x2="291" y1="326.3438" y2="373.625"/><line style="stroke: #CCCCCC; stroke-width: 1.0;" x1="611.5" x2="611.5" y1="45.9375" y2="130.5"/><line style="stroke: #CCCCCC; stroke-width: 1.0; stroke-dasharray: 1.0,4.0;" x1="611.5" x2="611.5" y1="130.5" y2="158.5"/><line style="stroke: #CCCCCC; stroke-width: 1.0;" x1="611.5" x2="611.5" y1="158.5" y2="195.7813"/><line style="stroke: #CCCCCC; stroke-width: 1.0; stroke-dasharray: 1.0,4.0;" x1="611.5" x2="611.5" y1="195.7813" y2="223.7813"/><line style="stroke: #CCCCCC; stroke-width: 1.0;" x1="611.5" x2="611.5" y1="223.7813" y2="298.3438"/><line style="stroke: #CCCCCC; stroke-width: 1.0; stroke-dasharray: 1.0,4.0;" x1="611.5" x2="611.5" y1="298.3438" y2="326.3438"/><line style="stroke: #CCCCCC; stroke-width: 1.0;" x1="611.5" x2="611.5" y1="326.3438" y2="373.625"/><rect fill="#1F1F1F" height="41.9375" style="stroke: #CCCCCC; stroke-width: 1.5;" width="70" x="8" y="3"/><text fill="#AAAAAA" font-family="sans-serif" font-size="24" lengthAdjust="spacingAndGlyphs" textLength="56" x="15" y="32.2773">Alice</text><rect fill="#1F1F1F" height="41.9375" style="stroke: #CCCCCC; stroke-width: 1.5;" width="70" x="8" y="372.625"/><text fill="#AAAAAA" font-family="sans-serif" font-size="24" lengthAdjust="spacingAndGlyphs" textLength="56" x="15" y="401.9023">Alice</text><rect fill="#1F1F1F" height="41.9375" style="stroke: #CCCCCC; stroke-width: 1.5;" width="92" x="245" y="3"/><text fill="#AAAAAA" font-family="sans-serif" font-size="24" lengthAdjust="spacingAndGlyphs" textLength="78" x="252" y="32.2773">Server</text><rect fill="#1F1F1F" height="41.9375" style="stroke: #CCCCCC; stroke-width: 1.5;" width="92" x="245" y="372.625"/><text fill="#AAAAAA" font-family="sans-serif" font-size="24" lengthAdjust="spacingAndGlyphs" textLength="78" x="252" y="401.9023">Server</text><rect fill="#1F1F1F" height="41.9375" style="stroke: #CCCCCC; stroke-width: 1.5;" width="59" x="582.5" y="3"/><text fill="#AAAAAA" font-family="sans-serif" font-size="24" lengthAdjust="spacingAndGlyphs" textLength="45" x="589.5" y="32.2773">Bob</text><rect fill="#1F1F1F" height="41.9375" style="stroke: #CCCCCC; stroke-width: 1.5;" width="59" x="582.5" y="372.625"/><text fill="#AAAAAA" font-family="sans-serif" font-size="24" lengthAdjust="spacingAndGlyphs" textLength="45" x="589.5" y="401.9023">Bob</text><polygon fill="#CCCCCC" points="279,80.9375,289,84.9375,279,88.9375,283,84.9375" style="stroke: #CCCCCC; stroke-width: 1.0;"/><line style="stroke: #CCCCCC; stroke-width: 1.0;" x1="43" x2="285" y1="84.9375" y2="84.9375"/><text fill="#AAAAAA" font-family="sans-serif" font-size="20" lengthAdjust="spacingAndGlyphs" textLength="224" x="55" y="78.502">inputs, blinded output</text><polygon fill="#CCCCCC" points="54,118.2188,44,122.2188,54,126.2188,50,122.2188" style="stroke: #CCCCCC; stroke-width: 1.0;"/><line style="stroke: #CCCCCC; stroke-width: 1.0;" x1="48" x2="290" y1="122.2188" y2="122.2188"/><text fill="#AAAAAA" font-family="sans-serif" font-size="20" lengthAdjust="spacingAndGlyphs" textLength="152" x="91" y="115.7832">blind signature</text><polygon fill="#CCCCCC" points="302,183.5,292,187.5,302,191.5,298,187.5" style="stroke: #CCCCCC; stroke-width: 1.0;"/><line style="stroke: #CCCCCC; stroke-width: 1.0;" x1="296" x2="611" y1="187.5" y2="187.5"/><text fill="#AAAAAA" font-family="sans-serif" font-size="20" lengthAdjust="spacingAndGlyphs" textLength="297" x="303" y="181.0645">unblinded output &amp; signature</text><polygon fill="#CCCCCC" points="54,248.7813,44,252.7813,54,256.7813,50,252.7813" style="stroke: #CCCCCC; stroke-width: 1.0;"/><line style="stroke: #CCCCCC; stroke-width: 1.0;" x1="48" x2="290" y1="252.7813" y2="252.7813"/><text fill="#AAAAAA" font-family="sans-serif" font-size="20" lengthAdjust="spacingAndGlyphs" textLength="212" x="61" y="246.3457">unsigned transaction</text><polygon fill="#CCCCCC" points="279,286.0625,289,290.0625,279,294.0625,283,290.0625" style="stroke: #CCCCCC; stroke-width: 1.0;"/><line style="stroke: #CCCCCC; stroke-width: 1.0;" x1="43" x2="285" y1="290.0625" y2="290.0625"/><text fill="#AAAAAA" font-family="sans-serif" font-size="20" lengthAdjust="spacingAndGlyphs" textLength="214" x="60" y="283.627">transaction signature</text><polygon fill="#CCCCCC" points="54,351.3438,44,355.3438,54,359.3438,50,355.3438" style="stroke: #CCCCCC; stroke-width: 1.0;"/><line style="stroke: #CCCCCC; stroke-width: 1.0;" x1="48" x2="290" y1="355.3438" y2="355.3438"/><text fill="#AAAAAA" font-family="sans-serif" font-size="20" lengthAdjust="spacingAndGlyphs" textLength="186" x="74" y="348.9082">signed transaction</text></g></svg>