<?xml version="1.0" encoding="UTF-8" standalone="yes"?>
<!-- Created with qrencode 3.4.4 (http://fukuchi.org/works/qrencode/index.html.en) -->
<svg width="4.34cm" height="4.34cm" viewBox="0 0 41 41" preserveAspectRatio="none" version="1.1" xmlns="http://www.w3.org/2000/svg">
	<g id="QRcode">
		<rect x="0" y="0" width="41" height="41" fill="#000000" fill-opacity="0.000000" />
		<g id="Pattern">
			<rect x="4" y="4" width="1" height="1" fill="#aaaaaa" />
			<rect x="5" y="4" width="1" height="1" fill="#aaaaaa" />
			<rect x="6" y="4" width="1" height="1" fill="#aaaaaa" />
			<rect x="7" y="4" width="1" height="1" fill="#aaaaaa" />
			<rect x="8" y="4" width="1" height="1" fill="#aaaaaa" />
			<rect x="9" y="4" width="1" height="1" fill="#aaaaaa" />
			<rect x="10" y="4" width="1" height="1" fill="#aaaaaa" />
			<rect x="13" y="4" width="1" height="1" fill="#aaaaaa" />
			<rect x="15" y="4" width="1" height="1" fill="#aaaaaa" />
			<rect x="17" y="4" width="1" height="1" fill="#aaaaaa" />
			<rect x="20" y="4" width="1" height="1" fill="#aaaaaa" />
			<rect x="21" y="4" width="1" height="1" fill="#aaaaaa" />
			<rect x="23" y="4" width="1" height="1" fill="#aaaaaa" />
			<rect x="24" y="4" width="1" height="1" fill="#aaaaaa" />
			<rect x="27" y="4" width="1" height="1" fill="#aaaaaa" />
			<rect x="30" y="4" width="1" height="1" fill="#aaaaaa" />
			<rect x="31" y="4" width="1" height="1" fill="#aaaaaa" />
			<rect x="32" y="4" width="1" height="1" fill="#aaaaaa" />
			<rect x="33" y="4" width="1" height="1" fill="#aaaaaa" />
			<rect x="34" y="4" width="1" height="1" fill="#aaaaaa" />
			<rect x="35" y="4" width="1" height="1" fill="#aaaaaa" />
			<rect x="36" y="4" width="1" height="1" fill="#aaaaaa" />
			<rect x="4" y="5" width="1" height="1" fill="#aaaaaa" />
			<rect x="10" y="5" width="1" height="1" fill="#aaaaaa" />
			<rect x="13" y="5" width="1" height="1" fill="#aaaaaa" />
			<rect x="16" y="5" width="1" height="1" fill="#aaaaaa" />
			<rect x="17" y="5" width="1" height="1" fill="#aaaaaa" />
			<rect x="18" y="5" width="1" height="1" fill="#aaaaaa" />
			<rect x="19" y="5" width="1" height="1" fill="#aaaaaa" />
			<rect x="20" y="5" width="1" height="1" fill="#aaaaaa" />
			<rect x="21" y="5" width="1" height="1" fill="#aaaaaa" />
			<rect x="24" y="5" width="1" height="1" fill="#aaaaaa" />
			<rect x="30" y="5" width="1" height="1" fill="#aaaaaa" />
			<rect x="36" y="5" width="1" height="1" fill="#aaaaaa" />
			<rect x="4" y="6" width="1" height="1" fill="#aaaaaa" />
			<rect x="6" y="6" width="1" height="1" fill="#aaaaaa" />
			<rect x="7" y="6" width="1" height="1" fill="#aaaaaa" />
			<rect x="8" y="6" width="1" height="1" fill="#aaaaaa" />
			<rect x="10" y="6" width="1" height="1" fill="#aaaaaa" />
			<rect x="12" y="6" width="1" height="1" fill="#aaaaaa" />
			<rect x="15" y="6" width="1" height="1" fill="#aaaaaa" />
			<rect x="17" y="6" width="1" height="1" fill="#aaaaaa" />
			<rect x="21" y="6" width="1" height="1" fill="#aaaaaa" />
			<rect x="22" y="6" width="1" height="1" fill="#aaaaaa" />
			<rect x="23" y="6" width="1" height="1" fill="#aaaaaa" />
			<rect x="24" y="6" width="1" height="1" fill="#aaaaaa" />
			<rect x="25" y="6" width="1" height="1" fill="#aaaaaa" />
			<rect x="26" y="6" width="1" height="1" fill="#aaaaaa" />
			<rect x="30" y="6" width="1" height="1" fill="#aaaaaa" />
			<rect x="32" y="6" width="1" height="1" fill="#aaaaaa" />
			<rect x="33" y="6" width="1" height="1" fill="#aaaaaa" />
			<rect x="34" y="6" width="1" height="1" fill="#aaaaaa" />
			<rect x="36" y="6" width="1" height="1" fill="#aaaaaa" />
			<rect x="4" y="7" width="1" height="1" fill="#aaaaaa" />
			<rect x="6" y="7" width="1" height="1" fill="#aaaaaa" />
			<rect x="7" y="7" width="1" height="1" fill="#aaaaaa" />
			<rect x="8" y="7" width="1" height="1" fill="#aaaaaa" />
			<rect x="10" y="7" width="1" height="1" fill="#aaaaaa" />
			<rect x="12" y="7" width="1" height="1" fill="#aaaaaa" />
			<rect x="13" y="7" width="1" height="1" fill="#aaaaaa" />
			<rect x="14" y="7" width="1" height="1" fill="#aaaaaa" />
			<rect x="16" y="7" width="1" height="1" fill="#aaaaaa" />
			<rect x="18" y="7" width="1" height="1" fill="#aaaaaa" />
			<rect x="19" y="7" width="1" height="1" fill="#aaaaaa" />
			<rect x="20" y="7" width="1" height="1" fill="#aaaaaa" />
			<rect x="23" y="7" width="1" height="1" fill="#aaaaaa" />
			<rect x="24" y="7" width="1" height="1" fill="#aaaaaa" />
			<rect x="26" y="7" width="1" height="1" fill="#aaaaaa" />
			<rect x="28" y="7" width="1" height="1" fill="#aaaaaa" />
			<rect x="30" y="7" width="1" height="1" fill="#aaaaaa" />
			<rect x="32" y="7" width="1" height="1" fill="#aaaaaa" />
			<rect x="33" y="7" width="1" height="1" fill="#aaaaaa" />
			<rect x="34" y="7" width="1" height="1" fill="#aaaaaa" />
			<rect x="36" y="7" width="1" height="1" fill="#aaaaaa" />
			<rect x="4" y="8" width="1" height="1" fill="#aaaaaa" />
			<rect x="6" y="8" width="1" height="1" fill="#aaaaaa" />
			<rect x="7" y="8" width="1" height="1" fill="#aaaaaa" />
			<rect x="8" y="8" width="1" height="1" fill="#aaaaaa" />
			<rect x="10" y="8" width="1" height="1" fill="#aaaaaa" />
			<rect x="12" y="8" width="1" height="1" fill="#aaaaaa" />
			<rect x="13" y="8" width="1" height="1" fill="#aaaaaa" />
			<rect x="14" y="8" width="1" height="1" fill="#aaaaaa" />
			<rect x="15" y="8" width="1" height="1" fill="#aaaaaa" />
			<rect x="17" y="8" width="1" height="1" fill="#aaaaaa" />
			<rect x="19" y="8" width="1" height="1" fill="#aaaaaa" />
			<rect x="22" y="8" width="1" height="1" fill="#aaaaaa" />
			<rect x="25" y="8" width="1" height="1" fill="#aaaaaa" />
			<rect x="26" y="8" width="1" height="1" fill="#aaaaaa" />
			<rect x="27" y="8" width="1" height="1" fill="#aaaaaa" />
			<rect x="30" y="8" width="1" height="1" fill="#aaaaaa" />
			<rect x="32" y="8" width="1" height="1" fill="#aaaaaa" />
			<rect x="33" y="8" width="1" height="1" fill="#aaaaaa" />
			<rect x="34" y="8" width="1" height="1" fill="#aaaaaa" />
			<rect x="36" y="8" width="1" height="1" fill="#aaaaaa" />
			<rect x="4" y="9" width="1" height="1" fill="#aaaaaa" />
			<rect x="10" y="9" width="1" height="1" fill="#aaaaaa" />
			<rect x="12" y="9" width="1" height="1" fill="#aaaaaa" />
			<rect x="14" y="9" width="1" height="1" fill="#aaaaaa" />
			<rect x="19" y="9" width="1" height="1" fill="#aaaaaa" />
			<rect x="20" y="9" width="1" height="1" fill="#aaaaaa" />
			<rect x="24" y="9" width="1" height="1" fill="#aaaaaa" />
			<rect x="30" y="9" width="1" height="1" fill="#aaaaaa" />
			<rect x="36" y="9" width="1" height="1" fill="#aaaaaa" />
			<rect x="4" y="10" width="1" height="1" fill="#aaaaaa" />
			<rect x="5" y="10" width="1" height="1" fill="#aaaaaa" />
			<rect x="6" y="10" width="1" height="1" fill="#aaaaaa" />
			<rect x="7" y="10" width="1" height="1" fill="#aaaaaa" />
			<rect x="8" y="10" width="1" height="1" fill="#aaaaaa" />
			<rect x="9" y="10" width="1" height="1" fill="#aaaaaa" />
			<rect x="10" y="10" width="1" height="1" fill="#aaaaaa" />
			<rect x="12" y="10" width="1" height="1" fill="#aaaaaa" />
			<rect x="14" y="10" width="1" height="1" fill="#aaaaaa" />
			<rect x="16" y="10" width="1" height="1" fill="#aaaaaa" />
			<rect x="18" y="10" width="1" height="1" fill="#aaaaaa" />
			<rect x="20" y="10" width="1" height="1" fill="#aaaaaa" />
			<rect x="22" y="10" width="1" height="1" fill="#aaaaaa" />
			<rect x="24" y="10" width="1" height="1" fill="#aaaaaa" />
			<rect x="26" y="10" width="1" height="1" fill="#aaaaaa" />
			<rect x="28" y="10" width="1" height="1" fill="#aaaaaa" />
			<rect x="30" y="10" width="1" height="1" fill="#aaaaaa" />
			<rect x="31" y="10" width="1" height="1" fill="#aaaaaa" />
			<rect x="32" y="10" width="1" height="1" fill="#aaaaaa" />
			<rect x="33" y="10" width="1" height="1" fill="#aaaaaa" />
			<rect x="34" y="10" width="1" height="1" fill="#aaaaaa" />
			<rect x="35" y="10" width="1" height="1" fill="#aaaaaa" />
			<rect x="36" y="10" width="1" height="1" fill="#aaaaaa" />
			<rect x="12" y="11" width="1" height="1" fill="#aaaaaa" />
			<rect x="13" y="11" width="1" height="1" fill="#aaaaaa" />
			<rect x="15" y="11" width="1" height="1" fill="#aaaaaa" />
			<rect x="16" y="11" width="1" height="1" fill="#aaaaaa" />
			<rect x="19" y="11" width="1" height="1" fill="#aaaaaa" />
			<rect x="22" y="11" width="1" height="1" fill="#aaaaaa" />
			<rect x="25" y="11" width="1" height="1" fill="#aaaaaa" />
			<rect x="27" y="11" width="1" height="1" fill="#aaaaaa" />
			<rect x="4" y="12" width="1" height="1" fill="#aaaaaa" />
			<rect x="6" y="12" width="1" height="1" fill="#aaaaaa" />
			<rect x="7" y="12" width="1" height="1" fill="#aaaaaa" />
			<rect x="8" y="12" width="1" height="1" fill="#aaaaaa" />
			<rect x="9" y="12" width="1" height="1" fill="#aaaaaa" />
			<rect x="10" y="12" width="1" height="1" fill="#aaaaaa" />
			<rect x="16" y="12" width="1" height="1" fill="#aaaaaa" />
			<rect x="17" y="12" width="1" height="1" fill="#aaaaaa" />
			<rect x="19" y="12" width="1" height="1" fill="#aaaaaa" />
			<rect x="21" y="12" width="1" height="1" fill="#aaaaaa" />
			<rect x="27" y="12" width="1" height="1" fill="#aaaaaa" />
			<rect x="30" y="12" width="1" height="1" fill="#aaaaaa" />
			<rect x="31" y="12" width="1" height="1" fill="#aaaaaa" />
			<rect x="32" y="12" width="1" height="1" fill="#aaaaaa" />
			<rect x="33" y="12" width="1" height="1" fill="#aaaaaa" />
			<rect x="34" y="12" width="1" height="1" fill="#aaaaaa" />
			<rect x="5" y="13" width="1" height="1" fill="#aaaaaa" />
			<rect x="6" y="13" width="1" height="1" fill="#aaaaaa" />
			<rect x="7" y="13" width="1" height="1" fill="#aaaaaa" />
			<rect x="11" y="13" width="1" height="1" fill="#aaaaaa" />
			<rect x="12" y="13" width="1" height="1" fill="#aaaaaa" />
			<rect x="14" y="13" width="1" height="1" fill="#aaaaaa" />
			<rect x="20" y="13" width="1" height="1" fill="#aaaaaa" />
			<rect x="22" y="13" width="1" height="1" fill="#aaaaaa" />
			<rect x="23" y="13" width="1" height="1" fill="#aaaaaa" />
			<rect x="24" y="13" width="1" height="1" fill="#aaaaaa" />
			<rect x="25" y="13" width="1" height="1" fill="#aaaaaa" />
			<rect x="27" y="13" width="1" height="1" fill="#aaaaaa" />
			<rect x="30" y="13" width="1" height="1" fill="#aaaaaa" />
			<rect x="31" y="13" width="1" height="1" fill="#aaaaaa" />
			<rect x="33" y="13" width="1" height="1" fill="#aaaaaa" />
			<rect x="34" y="13" width="1" height="1" fill="#aaaaaa" />
			<rect x="35" y="13" width="1" height="1" fill="#aaaaaa" />
			<rect x="36" y="13" width="1" height="1" fill="#aaaaaa" />
			<rect x="4" y="14" width="1" height="1" fill="#aaaaaa" />
			<rect x="6" y="14" width="1" height="1" fill="#aaaaaa" />
			<rect x="8" y="14" width="1" height="1" fill="#aaaaaa" />
			<rect x="10" y="14" width="1" height="1" fill="#aaaaaa" />
			<rect x="13" y="14" width="1" height="1" fill="#aaaaaa" />
			<rect x="15" y="14" width="1" height="1" fill="#aaaaaa" />
			<rect x="19" y="14" width="1" height="1" fill="#aaaaaa" />
			<rect x="20" y="14" width="1" height="1" fill="#aaaaaa" />
			<rect x="22" y="14" width="1" height="1" fill="#aaaaaa" />
			<rect x="25" y="14" width="1" height="1" fill="#aaaaaa" />
			<rect x="26" y="14" width="1" height="1" fill="#aaaaaa" />
			<rect x="28" y="14" width="1" height="1" fill="#aaaaaa" />
			<rect x="30" y="14" width="1" height="1" fill="#aaaaaa" />
			<rect x="32" y="14" width="1" height="1" fill="#aaaaaa" />
			<rect x="34" y="14" width="1" height="1" fill="#aaaaaa" />
			<rect x="35" y="14" width="1" height="1" fill="#aaaaaa" />
			<rect x="5" y="15" width="1" height="1" fill="#aaaaaa" />
			<rect x="7" y="15" width="1" height="1" fill="#aaaaaa" />
			<rect x="8" y="15" width="1" height="1" fill="#aaaaaa" />
			<rect x="9" y="15" width="1" height="1" fill="#aaaaaa" />
			<rect x="12" y="15" width="1" height="1" fill="#aaaaaa" />
			<rect x="14" y="15" width="1" height="1" fill="#aaaaaa" />
			<rect x="16" y="15" width="1" height="1" fill="#aaaaaa" />
			<rect x="18" y="15" width="1" height="1" fill="#aaaaaa" />
			<rect x="19" y="15" width="1" height="1" fill="#aaaaaa" />
			<rect x="20" y="15" width="1" height="1" fill="#aaaaaa" />
			<rect x="23" y="15" width="1" height="1" fill="#aaaaaa" />
			<rect x="24" y="15" width="1" height="1" fill="#aaaaaa" />
			<rect x="25" y="15" width="1" height="1" fill="#aaaaaa" />
			<rect x="26" y="15" width="1" height="1" fill="#aaaaaa" />
			<rect x="28" y="15" width="1" height="1" fill="#aaaaaa" />
			<rect x="29" y="15" width="1" height="1" fill="#aaaaaa" />
			<rect x="30" y="15" width="1" height="1" fill="#aaaaaa" />
			<rect x="32" y="15" width="1" height="1" fill="#aaaaaa" />
			<rect x="33" y="15" width="1" height="1" fill="#aaaaaa" />
			<rect x="34" y="15" width="1" height="1" fill="#aaaaaa" />
			<rect x="35" y="15" width="1" height="1" fill="#aaaaaa" />
			<rect x="5" y="16" width="1" height="1" fill="#aaaaaa" />
			<rect x="6" y="16" width="1" height="1" fill="#aaaaaa" />
			<rect x="7" y="16" width="1" height="1" fill="#aaaaaa" />
			<rect x="9" y="16" width="1" height="1" fill="#aaaaaa" />
			<rect x="10" y="16" width="1" height="1" fill="#aaaaaa" />
			<rect x="11" y="16" width="1" height="1" fill="#aaaaaa" />
			<rect x="13" y="16" width="1" height="1" fill="#aaaaaa" />
			<rect x="15" y="16" width="1" height="1" fill="#aaaaaa" />
			<rect x="19" y="16" width="1" height="1" fill="#aaaaaa" />
			<rect x="22" y="16" width="1" height="1" fill="#aaaaaa" />
			<rect x="23" y="16" width="1" height="1" fill="#aaaaaa" />
			<rect x="25" y="16" width="1" height="1" fill="#aaaaaa" />
			<rect x="27" y="16" width="1" height="1" fill="#aaaaaa" />
			<rect x="28" y="16" width="1" height="1" fill="#aaaaaa" />
			<rect x="31" y="16" width="1" height="1" fill="#aaaaaa" />
			<rect x="32" y="16" width="1" height="1" fill="#aaaaaa" />
			<rect x="33" y="16" width="1" height="1" fill="#aaaaaa" />
			<rect x="35" y="16" width="1" height="1" fill="#aaaaaa" />
			<rect x="4" y="17" width="1" height="1" fill="#aaaaaa" />
			<rect x="6" y="17" width="1" height="1" fill="#aaaaaa" />
			<rect x="7" y="17" width="1" height="1" fill="#aaaaaa" />
			<rect x="8" y="17" width="1" height="1" fill="#aaaaaa" />
			<rect x="9" y="17" width="1" height="1" fill="#aaaaaa" />
			<rect x="12" y="17" width="1" height="1" fill="#aaaaaa" />
			<rect x="14" y="17" width="1" height="1" fill="#aaaaaa" />
			<rect x="16" y="17" width="1" height="1" fill="#aaaaaa" />
			<rect x="18" y="17" width="1" height="1" fill="#aaaaaa" />
			<rect x="19" y="17" width="1" height="1" fill="#aaaaaa" />
			<rect x="20" y="17" width="1" height="1" fill="#aaaaaa" />
			<rect x="21" y="17" width="1" height="1" fill="#aaaaaa" />
			<rect x="24" y="17" width="1" height="1" fill="#aaaaaa" />
			<rect x="27" y="17" width="1" height="1" fill="#aaaaaa" />
			<rect x="30" y="17" width="1" height="1" fill="#aaaaaa" />
			<rect x="34" y="17" width="1" height="1" fill="#aaaaaa" />
			<rect x="35" y="17" width="1" height="1" fill="#aaaaaa" />
			<rect x="36" y="17" width="1" height="1" fill="#aaaaaa" />
			<rect x="4" y="18" width="1" height="1" fill="#aaaaaa" />
			<rect x="8" y="18" width="1" height="1" fill="#aaaaaa" />
			<rect x="10" y="18" width="1" height="1" fill="#aaaaaa" />
			<rect x="12" y="18" width="1" height="1" fill="#aaaaaa" />
			<rect x="14" y="18" width="1" height="1" fill="#aaaaaa" />
			<rect x="18" y="18" width="1" height="1" fill="#aaaaaa" />
			<rect x="22" y="18" width="1" height="1" fill="#aaaaaa" />
			<rect x="23" y="18" width="1" height="1" fill="#aaaaaa" />
			<rect x="26" y="18" width="1" height="1" fill="#aaaaaa" />
			<rect x="28" y="18" width="1" height="1" fill="#aaaaaa" />
			<rect x="29" y="18" width="1" height="1" fill="#aaaaaa" />
			<rect x="30" y="18" width="1" height="1" fill="#aaaaaa" />
			<rect x="31" y="18" width="1" height="1" fill="#aaaaaa" />
			<rect x="32" y="18" width="1" height="1" fill="#aaaaaa" />
			<rect x="35" y="18" width="1" height="1" fill="#aaaaaa" />
			<rect x="4" y="19" width="1" height="1" fill="#aaaaaa" />
			<rect x="5" y="19" width="1" height="1" fill="#aaaaaa" />
			<rect x="6" y="19" width="1" height="1" fill="#aaaaaa" />
			<rect x="7" y="19" width="1" height="1" fill="#aaaaaa" />
			<rect x="12" y="19" width="1" height="1" fill="#aaaaaa" />
			<rect x="15" y="19" width="1" height="1" fill="#aaaaaa" />
			<rect x="16" y="19" width="1" height="1" fill="#aaaaaa" />
			<rect x="18" y="19" width="1" height="1" fill="#aaaaaa" />
			<rect x="20" y="19" width="1" height="1" fill="#aaaaaa" />
			<rect x="22" y="19" width="1" height="1" fill="#aaaaaa" />
			<rect x="23" y="19" width="1" height="1" fill="#aaaaaa" />
			<rect x="24" y="19" width="1" height="1" fill="#aaaaaa" />
			<rect x="25" y="19" width="1" height="1" fill="#aaaaaa" />
			<rect x="29" y="19" width="1" height="1" fill="#aaaaaa" />
			<rect x="30" y="19" width="1" height="1" fill="#aaaaaa" />
			<rect x="32" y="19" width="1" height="1" fill="#aaaaaa" />
			<rect x="33" y="19" width="1" height="1" fill="#aaaaaa" />
			<rect x="34" y="19" width="1" height="1" fill="#aaaaaa" />
			<rect x="4" y="20" width="1" height="1" fill="#aaaaaa" />
			<rect x="5" y="20" width="1" height="1" fill="#aaaaaa" />
			<rect x="6" y="20" width="1" height="1" fill="#aaaaaa" />
			<rect x="7" y="20" width="1" height="1" fill="#aaaaaa" />
			<rect x="8" y="20" width="1" height="1" fill="#aaaaaa" />
			<rect x="10" y="20" width="1" height="1" fill="#aaaaaa" />
			<rect x="11" y="20" width="1" height="1" fill="#aaaaaa" />
			<rect x="13" y="20" width="1" height="1" fill="#aaaaaa" />
			<rect x="14" y="20" width="1" height="1" fill="#aaaaaa" />
			<rect x="17" y="20" width="1" height="1" fill="#aaaaaa" />
			<rect x="18" y="20" width="1" height="1" fill="#aaaaaa" />
			<rect x="20" y="20" width="1" height="1" fill="#aaaaaa" />
			<rect x="21" y="20" width="1" height="1" fill="#aaaaaa" />
			<rect x="23" y="20" width="1" height="1" fill="#aaaaaa" />
			<rect x="26" y="20" width="1" height="1" fill="#aaaaaa" />
			<rect x="28" y="20" width="1" height="1" fill="#aaaaaa" />
			<rect x="29" y="20" width="1" height="1" fill="#aaaaaa" />
			<rect x="31" y="20" width="1" height="1" fill="#aaaaaa" />
			<rect x="32" y="20" width="1" height="1" fill="#aaaaaa" />
			<rect x="36" y="20" width="1" height="1" fill="#aaaaaa" />
			<rect x="8" y="21" width="1" height="1" fill="#aaaaaa" />
			<rect x="12" y="21" width="1" height="1" fill="#aaaaaa" />
			<rect x="14" y="21" width="1" height="1" fill="#aaaaaa" />
			<rect x="15" y="21" width="1" height="1" fill="#aaaaaa" />
			<rect x="20" y="21" width="1" height="1" fill="#aaaaaa" />
			<rect x="21" y="21" width="1" height="1" fill="#aaaaaa" />
			<rect x="22" y="21" width="1" height="1" fill="#aaaaaa" />
			<rect x="23" y="21" width="1" height="1" fill="#aaaaaa" />
			<rect x="24" y="21" width="1" height="1" fill="#aaaaaa" />
			<rect x="27" y="21" width="1" height="1" fill="#aaaaaa" />
			<rect x="30" y="21" width="1" height="1" fill="#aaaaaa" />
			<rect x="31" y="21" width="1" height="1" fill="#aaaaaa" />
			<rect x="33" y="21" width="1" height="1" fill="#aaaaaa" />
			<rect x="34" y="21" width="1" height="1" fill="#aaaaaa" />
			<rect x="36" y="21" width="1" height="1" fill="#aaaaaa" />
			<rect x="4" y="22" width="1" height="1" fill="#aaaaaa" />
			<rect x="5" y="22" width="1" height="1" fill="#aaaaaa" />
			<rect x="7" y="22" width="1" height="1" fill="#aaaaaa" />
			<rect x="9" y="22" width="1" height="1" fill="#aaaaaa" />
			<rect x="10" y="22" width="1" height="1" fill="#aaaaaa" />
			<rect x="12" y="22" width="1" height="1" fill="#aaaaaa" />
			<rect x="14" y="22" width="1" height="1" fill="#aaaaaa" />
			<rect x="16" y="22" width="1" height="1" fill="#aaaaaa" />
			<rect x="17" y="22" width="1" height="1" fill="#aaaaaa" />
			<rect x="19" y="22" width="1" height="1" fill="#aaaaaa" />
			<rect x="20" y="22" width="1" height="1" fill="#aaaaaa" />
			<rect x="21" y="22" width="1" height="1" fill="#aaaaaa" />
			<rect x="24" y="22" width="1" height="1" fill="#aaaaaa" />
			<rect x="26" y="22" width="1" height="1" fill="#aaaaaa" />
			<rect x="28" y="22" width="1" height="1" fill="#aaaaaa" />
			<rect x="29" y="22" width="1" height="1" fill="#aaaaaa" />
			<rect x="30" y="22" width="1" height="1" fill="#aaaaaa" />
			<rect x="31" y="22" width="1" height="1" fill="#aaaaaa" />
			<rect x="32" y="22" width="1" height="1" fill="#aaaaaa" />
			<rect x="34" y="22" width="1" height="1" fill="#aaaaaa" />
			<rect x="35" y="22" width="1" height="1" fill="#aaaaaa" />
			<rect x="6" y="23" width="1" height="1" fill="#aaaaaa" />
			<rect x="7" y="23" width="1" height="1" fill="#aaaaaa" />
			<rect x="8" y="23" width="1" height="1" fill="#aaaaaa" />
			<rect x="11" y="23" width="1" height="1" fill="#aaaaaa" />
			<rect x="16" y="23" width="1" height="1" fill="#aaaaaa" />
			<rect x="18" y="23" width="1" height="1" fill="#aaaaaa" />
			<rect x="19" y="23" width="1" height="1" fill="#aaaaaa" />
			<rect x="20" y="23" width="1" height="1" fill="#aaaaaa" />
			<rect x="21" y="23" width="1" height="1" fill="#aaaaaa" />
			<rect x="22" y="23" width="1" height="1" fill="#aaaaaa" />
			<rect x="23" y="23" width="1" height="1" fill="#aaaaaa" />
			<rect x="24" y="23" width="1" height="1" fill="#aaaaaa" />
			<rect x="29" y="23" width="1" height="1" fill="#aaaaaa" />
			<rect x="31" y="23" width="1" height="1" fill="#aaaaaa" />
			<rect x="32" y="23" width="1" height="1" fill="#aaaaaa" />
			<rect x="33" y="23" width="1" height="1" fill="#aaaaaa" />
			<rect x="34" y="23" width="1" height="1" fill="#aaaaaa" />
			<rect x="36" y="23" width="1" height="1" fill="#aaaaaa" />
			<rect x="5" y="24" width="1" height="1" fill="#aaaaaa" />
			<rect x="8" y="24" width="1" height="1" fill="#aaaaaa" />
			<rect x="10" y="24" width="1" height="1" fill="#aaaaaa" />
			<rect x="12" y="24" width="1" height="1" fill="#aaaaaa" />
			<rect x="16" y="24" width="1" height="1" fill="#aaaaaa" />
			<rect x="18" y="24" width="1" height="1" fill="#aaaaaa" />
			<rect x="20" y="24" width="1" height="1" fill="#aaaaaa" />
			<rect x="23" y="24" width="1" height="1" fill="#aaaaaa" />
			<rect x="24" y="24" width="1" height="1" fill="#aaaaaa" />
			<rect x="25" y="24" width="1" height="1" fill="#aaaaaa" />
			<rect x="26" y="24" width="1" height="1" fill="#aaaaaa" />
			<rect x="28" y="24" width="1" height="1" fill="#aaaaaa" />
			<rect x="29" y="24" width="1" height="1" fill="#aaaaaa" />
			<rect x="31" y="24" width="1" height="1" fill="#aaaaaa" />
			<rect x="32" y="24" width="1" height="1" fill="#aaaaaa" />
			<rect x="33" y="24" width="1" height="1" fill="#aaaaaa" />
			<rect x="36" y="24" width="1" height="1" fill="#aaaaaa" />
			<rect x="4" y="25" width="1" height="1" fill="#aaaaaa" />
			<rect x="5" y="25" width="1" height="1" fill="#aaaaaa" />
			<rect x="11" y="25" width="1" height="1" fill="#aaaaaa" />
			<rect x="12" y="25" width="1" height="1" fill="#aaaaaa" />
			<rect x="13" y="25" width="1" height="1" fill="#aaaaaa" />
			<rect x="14" y="25" width="1" height="1" fill="#aaaaaa" />
			<rect x="15" y="25" width="1" height="1" fill="#aaaaaa" />
			<rect x="18" y="25" width="1" height="1" fill="#aaaaaa" />
			<rect x="19" y="25" width="1" height="1" fill="#aaaaaa" />
			<rect x="21" y="25" width="1" height="1" fill="#aaaaaa" />
			<rect x="22" y="25" width="1" height="1" fill="#aaaaaa" />
			<rect x="25" y="25" width="1" height="1" fill="#aaaaaa" />
			<rect x="27" y="25" width="1" height="1" fill="#aaaaaa" />
			<rect x="29" y="25" width="1" height="1" fill="#aaaaaa" />
			<rect x="30" y="25" width="1" height="1" fill="#aaaaaa" />
			<rect x="33" y="25" width="1" height="1" fill="#aaaaaa" />
			<rect x="36" y="25" width="1" height="1" fill="#aaaaaa" />
			<rect x="4" y="26" width="1" height="1" fill="#aaaaaa" />
			<rect x="7" y="26" width="1" height="1" fill="#aaaaaa" />
			<rect x="8" y="26" width="1" height="1" fill="#aaaaaa" />
			<rect x="10" y="26" width="1" height="1" fill="#aaaaaa" />
			<rect x="11" y="26" width="1" height="1" fill="#aaaaaa" />
			<rect x="12" y="26" width="1" height="1" fill="#aaaaaa" />
			<rect x="14" y="26" width="1" height="1" fill="#aaaaaa" />
			<rect x="16" y="26" width="1" height="1" fill="#aaaaaa" />
			<rect x="17" y="26" width="1" height="1" fill="#aaaaaa" />
			<rect x="19" y="26" width="1" height="1" fill="#aaaaaa" />
			<rect x="20" y="26" width="1" height="1" fill="#aaaaaa" />
			<rect x="22" y="26" width="1" height="1" fill="#aaaaaa" />
			<rect x="24" y="26" width="1" height="1" fill="#aaaaaa" />
			<rect x="29" y="26" width="1" height="1" fill="#aaaaaa" />
			<rect x="33" y="26" width="1" height="1" fill="#aaaaaa" />
			<rect x="35" y="26" width="1" height="1" fill="#aaaaaa" />
			<rect x="4" y="27" width="1" height="1" fill="#aaaaaa" />
			<rect x="6" y="27" width="1" height="1" fill="#aaaaaa" />
			<rect x="8" y="27" width="1" height="1" fill="#aaaaaa" />
			<rect x="9" y="27" width="1" height="1" fill="#aaaaaa" />
			<rect x="13" y="27" width="1" height="1" fill="#aaaaaa" />
			<rect x="15" y="27" width="1" height="1" fill="#aaaaaa" />
			<rect x="16" y="27" width="1" height="1" fill="#aaaaaa" />
			<rect x="17" y="27" width="1" height="1" fill="#aaaaaa" />
			<rect x="18" y="27" width="1" height="1" fill="#aaaaaa" />
			<rect x="19" y="27" width="1" height="1" fill="#aaaaaa" />
			<rect x="25" y="27" width="1" height="1" fill="#aaaaaa" />
			<rect x="26" y="27" width="1" height="1" fill="#aaaaaa" />
			<rect x="29" y="27" width="1" height="1" fill="#aaaaaa" />
			<rect x="30" y="27" width="1" height="1" fill="#aaaaaa" />
			<rect x="31" y="27" width="1" height="1" fill="#aaaaaa" />
			<rect x="32" y="27" width="1" height="1" fill="#aaaaaa" />
			<rect x="33" y="27" width="1" height="1" fill="#aaaaaa" />
			<rect x="34" y="27" width="1" height="1" fill="#aaaaaa" />
			<rect x="36" y="27" width="1" height="1" fill="#aaaaaa" />
			<rect x="4" y="28" width="1" height="1" fill="#aaaaaa" />
			<rect x="7" y="28" width="1" height="1" fill="#aaaaaa" />
			<rect x="9" y="28" width="1" height="1" fill="#aaaaaa" />
			<rect x="10" y="28" width="1" height="1" fill="#aaaaaa" />
			<rect x="11" y="28" width="1" height="1" fill="#aaaaaa" />
			<rect x="12" y="28" width="1" height="1" fill="#aaaaaa" />
			<rect x="13" y="28" width="1" height="1" fill="#aaaaaa" />
			<rect x="14" y="28" width="1" height="1" fill="#aaaaaa" />
			<rect x="15" y="28" width="1" height="1" fill="#aaaaaa" />
			<rect x="16" y="28" width="1" height="1" fill="#aaaaaa" />
			<rect x="17" y="28" width="1" height="1" fill="#aaaaaa" />
			<rect x="18" y="28" width="1" height="1" fill="#aaaaaa" />
			<rect x="19" y="28" width="1" height="1" fill="#aaaaaa" />
			<rect x="21" y="28" width="1" height="1" fill="#aaaaaa" />
			<rect x="26" y="28" width="1" height="1" fill="#aaaaaa" />
			<rect x="28" y="28" width="1" height="1" fill="#aaaaaa" />
			<rect x="29" y="28" width="1" height="1" fill="#aaaaaa" />
			<rect x="30" y="28" width="1" height="1" fill="#aaaaaa" />
			<rect x="31" y="28" width="1" height="1" fill="#aaaaaa" />
			<rect x="32" y="28" width="1" height="1" fill="#aaaaaa" />
			<rect x="35" y="28" width="1" height="1" fill="#aaaaaa" />
			<rect x="36" y="28" width="1" height="1" fill="#aaaaaa" />
			<rect x="12" y="29" width="1" height="1" fill="#aaaaaa" />
			<rect x="20" y="29" width="1" height="1" fill="#aaaaaa" />
			<rect x="22" y="29" width="1" height="1" fill="#aaaaaa" />
			<rect x="23" y="29" width="1" height="1" fill="#aaaaaa" />
			<rect x="25" y="29" width="1" height="1" fill="#aaaaaa" />
			<rect x="27" y="29" width="1" height="1" fill="#aaaaaa" />
			<rect x="28" y="29" width="1" height="1" fill="#aaaaaa" />
			<rect x="32" y="29" width="1" height="1" fill="#aaaaaa" />
			<rect x="34" y="29" width="1" height="1" fill="#aaaaaa" />
			<rect x="35" y="29" width="1" height="1" fill="#aaaaaa" />
			<rect x="36" y="29" width="1" height="1" fill="#aaaaaa" />
			<rect x="4" y="30" width="1" height="1" fill="#aaaaaa" />
			<rect x="5" y="30" width="1" height="1" fill="#aaaaaa" />
			<rect x="6" y="30" width="1" height="1" fill="#aaaaaa" />
			<rect x="7" y="30" width="1" height="1" fill="#aaaaaa" />
			<rect x="8" y="30" width="1" height="1" fill="#aaaaaa" />
			<rect x="9" y="30" width="1" height="1" fill="#aaaaaa" />
			<rect x="10" y="30" width="1" height="1" fill="#aaaaaa" />
			<rect x="13" y="30" width="1" height="1" fill="#aaaaaa" />
			<rect x="16" y="30" width="1" height="1" fill="#aaaaaa" />
			<rect x="17" y="30" width="1" height="1" fill="#aaaaaa" />
			<rect x="18" y="30" width="1" height="1" fill="#aaaaaa" />
			<rect x="19" y="30" width="1" height="1" fill="#aaaaaa" />
			<rect x="20" y="30" width="1" height="1" fill="#aaaaaa" />
			<rect x="22" y="30" width="1" height="1" fill="#aaaaaa" />
			<rect x="24" y="30" width="1" height="1" fill="#aaaaaa" />
			<rect x="25" y="30" width="1" height="1" fill="#aaaaaa" />
			<rect x="27" y="30" width="1" height="1" fill="#aaaaaa" />
			<rect x="28" y="30" width="1" height="1" fill="#aaaaaa" />
			<rect x="30" y="30" width="1" height="1" fill="#aaaaaa" />
			<rect x="32" y="30" width="1" height="1" fill="#aaaaaa" />
			<rect x="34" y="30" width="1" height="1" fill="#aaaaaa" />
			<rect x="35" y="30" width="1" height="1" fill="#aaaaaa" />
			<rect x="4" y="31" width="1" height="1" fill="#aaaaaa" />
			<rect x="10" y="31" width="1" height="1" fill="#aaaaaa" />
			<rect x="12" y="31" width="1" height="1" fill="#aaaaaa" />
			<rect x="13" y="31" width="1" height="1" fill="#aaaaaa" />
			<rect x="14" y="31" width="1" height="1" fill="#aaaaaa" />
			<rect x="16" y="31" width="1" height="1" fill="#aaaaaa" />
			<rect x="17" y="31" width="1" height="1" fill="#aaaaaa" />
			<rect x="20" y="31" width="1" height="1" fill="#aaaaaa" />
			<rect x="24" y="31" width="1" height="1" fill="#aaaaaa" />
			<rect x="25" y="31" width="1" height="1" fill="#aaaaaa" />
			<rect x="26" y="31" width="1" height="1" fill="#aaaaaa" />
			<rect x="27" y="31" width="1" height="1" fill="#aaaaaa" />
			<rect x="28" y="31" width="1" height="1" fill="#aaaaaa" />
			<rect x="32" y="31" width="1" height="1" fill="#aaaaaa" />
			<rect x="33" y="31" width="1" height="1" fill="#aaaaaa" />
			<rect x="34" y="31" width="1" height="1" fill="#aaaaaa" />
			<rect x="35" y="31" width="1" height="1" fill="#aaaaaa" />
			<rect x="36" y="31" width="1" height="1" fill="#aaaaaa" />
			<rect x="4" y="32" width="1" height="1" fill="#aaaaaa" />
			<rect x="6" y="32" width="1" height="1" fill="#aaaaaa" />
			<rect x="7" y="32" width="1" height="1" fill="#aaaaaa" />
			<rect x="8" y="32" width="1" height="1" fill="#aaaaaa" />
			<rect x="10" y="32" width="1" height="1" fill="#aaaaaa" />
			<rect x="12" y="32" width="1" height="1" fill="#aaaaaa" />
			<rect x="13" y="32" width="1" height="1" fill="#aaaaaa" />
			<rect x="15" y="32" width="1" height="1" fill="#aaaaaa" />
			<rect x="17" y="32" width="1" height="1" fill="#aaaaaa" />
			<rect x="19" y="32" width="1" height="1" fill="#aaaaaa" />
			<rect x="22" y="32" width="1" height="1" fill="#aaaaaa" />
			<rect x="23" y="32" width="1" height="1" fill="#aaaaaa" />
			<rect x="25" y="32" width="1" height="1" fill="#aaaaaa" />
			<rect x="28" y="32" width="1" height="1" fill="#aaaaaa" />
			<rect x="29" y="32" width="1" height="1" fill="#aaaaaa" />
			<rect x="30" y="32" width="1" height="1" fill="#aaaaaa" />
			<rect x="31" y="32" width="1" height="1" fill="#aaaaaa" />
			<rect x="32" y="32" width="1" height="1" fill="#aaaaaa" />
			<rect x="33" y="32" width="1" height="1" fill="#aaaaaa" />
			<rect x="35" y="32" width="1" height="1" fill="#aaaaaa" />
			<rect x="36" y="32" width="1" height="1" fill="#aaaaaa" />
			<rect x="4" y="33" width="1" height="1" fill="#aaaaaa" />
			<rect x="6" y="33" width="1" height="1" fill="#aaaaaa" />
			<rect x="7" y="33" width="1" height="1" fill="#aaaaaa" />
			<rect x="8" y="33" width="1" height="1" fill="#aaaaaa" />
			<rect x="10" y="33" width="1" height="1" fill="#aaaaaa" />
			<rect x="12" y="33" width="1" height="1" fill="#aaaaaa" />
			<rect x="13" y="33" width="1" height="1" fill="#aaaaaa" />
			<rect x="16" y="33" width="1" height="1" fill="#aaaaaa" />
			<rect x="18" y="33" width="1" height="1" fill="#aaaaaa" />
			<rect x="19" y="33" width="1" height="1" fill="#aaaaaa" />
			<rect x="20" y="33" width="1" height="1" fill="#aaaaaa" />
			<rect x="21" y="33" width="1" height="1" fill="#aaaaaa" />
			<rect x="24" y="33" width="1" height="1" fill="#aaaaaa" />
			<rect x="26" y="33" width="1" height="1" fill="#aaaaaa" />
			<rect x="27" y="33" width="1" height="1" fill="#aaaaaa" />
			<rect x="28" y="33" width="1" height="1" fill="#aaaaaa" />
			<rect x="29" y="33" width="1" height="1" fill="#aaaaaa" />
			<rect x="32" y="33" width="1" height="1" fill="#aaaaaa" />
			<rect x="33" y="33" width="1" height="1" fill="#aaaaaa" />
			<rect x="36" y="33" width="1" height="1" fill="#aaaaaa" />
			<rect x="4" y="34" width="1" height="1" fill="#aaaaaa" />
			<rect x="6" y="34" width="1" height="1" fill="#aaaaaa" />
			<rect x="7" y="34" width="1" height="1" fill="#aaaaaa" />
			<rect x="8" y="34" width="1" height="1" fill="#aaaaaa" />
			<rect x="10" y="34" width="1" height="1" fill="#aaaaaa" />
			<rect x="12" y="34" width="1" height="1" fill="#aaaaaa" />
			<rect x="13" y="34" width="1" height="1" fill="#aaaaaa" />
			<rect x="15" y="34" width="1" height="1" fill="#aaaaaa" />
			<rect x="17" y="34" width="1" height="1" fill="#aaaaaa" />
			<rect x="21" y="34" width="1" height="1" fill="#aaaaaa" />
			<rect x="23" y="34" width="1" height="1" fill="#aaaaaa" />
			<rect x="26" y="34" width="1" height="1" fill="#aaaaaa" />
			<rect x="30" y="34" width="1" height="1" fill="#aaaaaa" />
			<rect x="31" y="34" width="1" height="1" fill="#aaaaaa" />
			<rect x="34" y="34" width="1" height="1" fill="#aaaaaa" />
			<rect x="4" y="35" width="1" height="1" fill="#aaaaaa" />
			<rect x="10" y="35" width="1" height="1" fill="#aaaaaa" />
			<rect x="13" y="35" width="1" height="1" fill="#aaaaaa" />
			<rect x="16" y="35" width="1" height="1" fill="#aaaaaa" />
			<rect x="17" y="35" width="1" height="1" fill="#aaaaaa" />
			<rect x="18" y="35" width="1" height="1" fill="#aaaaaa" />
			<rect x="20" y="35" width="1" height="1" fill="#aaaaaa" />
			<rect x="22" y="35" width="1" height="1" fill="#aaaaaa" />
			<rect x="23" y="35" width="1" height="1" fill="#aaaaaa" />
			<rect x="24" y="35" width="1" height="1" fill="#aaaaaa" />
			<rect x="25" y="35" width="1" height="1" fill="#aaaaaa" />
			<rect x="26" y="35" width="1" height="1" fill="#aaaaaa" />
			<rect x="27" y="35" width="1" height="1" fill="#aaaaaa" />
			<rect x="32" y="35" width="1" height="1" fill="#aaaaaa" />
			<rect x="33" y="35" width="1" height="1" fill="#aaaaaa" />
			<rect x="34" y="35" width="1" height="1" fill="#aaaaaa" />
			<rect x="4" y="36" width="1" height="1" fill="#aaaaaa" />
			<rect x="5" y="36" width="1" height="1" fill="#aaaaaa" />
			<rect x="6" y="36" width="1" height="1" fill="#aaaaaa" />
			<rect x="7" y="36" width="1" height="1" fill="#aaaaaa" />
			<rect x="8" y="36" width="1" height="1" fill="#aaaaaa" />
			<rect x="9" y="36" width="1" height="1" fill="#aaaaaa" />
			<rect x="10" y="36" width="1" height="1" fill="#aaaaaa" />
			<rect x="12" y="36" width="1" height="1" fill="#aaaaaa" />
			<rect x="13" y="36" width="1" height="1" fill="#aaaaaa" />
			<rect x="16" y="36" width="1" height="1" fill="#aaaaaa" />
			<rect x="21" y="36" width="1" height="1" fill="#aaaaaa" />
			<rect x="23" y="36" width="1" height="1" fill="#aaaaaa" />
			<rect x="26" y="36" width="1" height="1" fill="#aaaaaa" />
			<rect x="27" y="36" width="1" height="1" fill="#aaaaaa" />
			<rect x="28" y="36" width="1" height="1" fill="#aaaaaa" />
			<rect x="29" y="36" width="1" height="1" fill="#aaaaaa" />
			<rect x="30" y="36" width="1" height="1" fill="#aaaaaa" />
			<rect x="31" y="36" width="1" height="1" fill="#aaaaaa" />
			<rect x="35" y="36" width="1" height="1" fill="#aaaaaa" />
		</g>
	</g>
</svg>
