<?xml version="1.0" encoding="UTF-8" standalone="no"?>
<!DOCTYPE svg PUBLIC "-//W3C//DTD SVG 1.1//EN"
 "http://www.w3.org/Graphics/SVG/1.1/DTD/svg11.dtd">
<!-- Generated by graphviz version 2.38.0 (20140413.2041)
 -->
<!-- Title: finite_state_machine Pages: 1 -->
<svg width="760pt" height="125pt"
 viewBox="0.00 0.00 760.00 125.00" xmlns="http://www.w3.org/2000/svg" xmlns:xlink="http://www.w3.org/1999/xlink">
<g id="graph0" class="graph" transform="scale(1 1) rotate(0) translate(4 121)">
<title>finite_state_machine</title>
<!-- tx0 -->
<g id="node1" class="node"><title>tx0</title>
<polygon fill="#202020" stroke="#aaaaaa" points="134,-63 0,-63 0,-27 134,-27 134,-63"/>
<text text-anchor="middle" x="67" y="-41.3" font-family="Times,serif" font-size="14.00" fill="#aaaaaa">Coinbase Transaction</text>
</g>
<!-- o0 -->
<g id="node4" class="node"><title>o0</title>
<text text-anchor="middle" x="208.5" y="-41.3" font-family="Times,serif" font-size="14.00" fill="#304040">(̶5̶0̶,̶ ̶A̶l̶i̶c̶e̶)̶</text>
</g>
<!-- tx0&#45;&gt;o0 -->
<g id="edge1" class="edge"><title>tx0&#45;&gt;o0</title>
<path fill="none" stroke="#aaaaaa" d="M134.073,-45C142.689,-45 151.38,-45 159.618,-45"/>
<polygon fill="#aaaaaa" stroke="#aaaaaa" points="159.771,-48.5001 169.771,-45 159.771,-41.5001 159.771,-48.5001"/>
</g>
<!-- tx1 -->
<g id="node2" class="node"><title>tx1</title>
<polygon fill="#202020" stroke="#aaaaaa" points="350,-63 283,-63 283,-27 350,-27 350,-63"/>
<text text-anchor="middle" x="316.5" y="-41.3" font-family="Times,serif" font-size="14.00" fill="#aaaaaa">Donation</text>
</g>
<!-- o1 -->
<g id="node5" class="node"><title>o1</title>
<text text-anchor="middle" x="439.5" y="-68.3" font-family="Times,serif" font-size="14.00" fill="#304040">(̶4̶0̶,̶ ̶A̶l̶i̶c̶e̶)̶</text>
</g>
<!-- tx1&#45;&gt;o1 -->
<g id="edge3" class="edge"><title>tx1&#45;&gt;o1</title>
<path fill="none" stroke="#aaaaaa" d="M350.244,-52.3066C362.626,-55.0694 376.988,-58.2741 390.483,-61.2855"/>
<polygon fill="#aaaaaa" stroke="#aaaaaa" points="390.065,-64.7781 400.587,-63.5401 391.589,-57.9462 390.065,-64.7781"/>
</g>
<!-- o2 -->
<g id="node6" class="node"><title>o2</title>
<text text-anchor="middle" x="439.5" y="-14.3" font-family="Times,serif" font-size="14.00" fill="#aaaaaa">(10, WikiLeaks)</text>
</g>
<!-- tx1&#45;&gt;o2 -->
<g id="edge4" class="edge"><title>tx1&#45;&gt;o2</title>
<path fill="none" stroke="#aaaaaa" d="M350.244,-37.6934C358.177,-35.9233 366.923,-33.9717 375.733,-32.0059"/>
<polygon fill="#aaaaaa" stroke="#aaaaaa" points="376.669,-35.3831 385.667,-29.7892 375.145,-28.5511 376.669,-35.3831"/>
</g>
<!-- tx2 -->
<g id="node3" class="node"><title>tx2</title>
<polygon fill="#202020" stroke="#aaaaaa" points="594,-90 529,-90 529,-54 594,-54 594,-90"/>
<text text-anchor="middle" x="561.5" y="-68.3" font-family="Times,serif" font-size="14.00" fill="#aaaaaa">Purchase</text>
</g>
<!-- o3 -->
<g id="node7" class="node"><title>o3</title>
<text text-anchor="middle" x="691" y="-95.3" font-family="Times,serif" font-size="14.00" fill="#aaaaaa">(35, Alice)</text>
</g>
<!-- tx2&#45;&gt;o3 -->
<g id="edge6" class="edge"><title>tx2&#45;&gt;o3</title>
<path fill="none" stroke="#aaaaaa" d="M594.017,-78.6742C608.795,-81.8037 626.71,-85.5975 643.042,-89.0559"/>
<polygon fill="#aaaaaa" stroke="#aaaaaa" points="642.456,-92.5093 652.964,-91.157 643.906,-85.6612 642.456,-92.5093"/>
</g>
<!-- o4 -->
<g id="node8" class="node"><title>o4</title>
<text text-anchor="middle" x="691" y="-41.3" font-family="Times,serif" font-size="14.00" fill="#aaaaaa">(5, Alpaca Vendor)</text>
</g>
<!-- tx2&#45;&gt;o4 -->
<g id="edge7" class="edge"><title>tx2&#45;&gt;o4</title>
<path fill="none" stroke="#aaaaaa" d="M594.017,-65.3258C602.032,-63.6286 610.969,-61.7359 620.076,-59.8074"/>
<polygon fill="#aaaaaa" stroke="#aaaaaa" points="620.931,-63.204 629.989,-57.7082 619.481,-56.3559 620.931,-63.204"/>
</g>
<!-- o0&#45;&gt;tx1 -->
<g id="edge2" class="edge"><title>o0&#45;&gt;tx1</title>
<path fill="none" stroke="#aaaaaa" d="M247.17,-45C255.462,-45 264.302,-45 272.777,-45"/>
<polygon fill="#aaaaaa" stroke="#aaaaaa" points="272.872,-48.5001 282.872,-45 272.872,-41.5001 272.872,-48.5001"/>
</g>
<!-- o1&#45;&gt;tx2 -->
<g id="edge5" class="edge"><title>o1&#45;&gt;tx2</title>
<path fill="none" stroke="#aaaaaa" d="M478.14,-72C490.939,-72 505.323,-72 518.446,-72"/>
<polygon fill="#aaaaaa" stroke="#aaaaaa" points="518.645,-75.5001 528.645,-72 518.645,-68.5001 518.645,-75.5001"/>
</g>
</g>
</svg>
