<?xml version="1.0" encoding="UTF-8" standalone="no"?>
<!DOCTYPE svg PUBLIC "-//W3C//DTD SVG 1.1//EN"
 "http://www.w3.org/Graphics/SVG/1.1/DTD/svg11.dtd">
<!-- Generated by graphviz version 2.38.0 (20140413.2041)
 -->
<!-- Title: finite_state_machine Pages: 1 -->
<svg width="501pt" height="98pt"
 viewBox="0.00 0.00 501.00 98.00" xmlns="http://www.w3.org/2000/svg" xmlns:xlink="http://www.w3.org/1999/xlink">
<g id="graph0" class="graph" transform="scale(1 1) rotate(0) translate(4 94)">
<title>finite_state_machine</title>
<!-- tx0 -->
<g id="node1" class="node"><title>tx0</title>
<polygon fill="#202020" stroke="#aaaaaa" points="134,-63 0,-63 0,-27 134,-27 134,-63"/>
<text text-anchor="middle" x="67" y="-41.3" font-family="Times,serif" font-size="14.00" fill="#aaaaaa">Coinbase Transaction</text>
</g>
<!-- o0 -->
<g id="node3" class="node"><title>o0</title>
<text text-anchor="middle" x="208.5" y="-41.3" font-family="Times,serif" font-size="14.00" fill="#304040">(̶5̶0̶,̶ ̶A̶l̶i̶c̶e̶)̶</text>
</g>
<!-- tx0&#45;&gt;o0 -->
<g id="edge1" class="edge"><title>tx0&#45;&gt;o0</title>
<path fill="none" stroke="#aaaaaa" d="M134.073,-45C142.689,-45 151.38,-45 159.618,-45"/>
<polygon fill="#aaaaaa" stroke="#aaaaaa" points="159.771,-48.5001 169.771,-45 159.771,-41.5001 159.771,-48.5001"/>
</g>
<!-- tx1 -->
<g id="node2" class="node"><title>tx1</title>
<polygon fill="#202020" stroke="#aaaaaa" points="350,-63 283,-63 283,-27 350,-27 350,-63"/>
<text text-anchor="middle" x="316.5" y="-41.3" font-family="Times,serif" font-size="14.00" fill="#aaaaaa">Donation</text>
</g>
<!-- o1 -->
<g id="node4" class="node"><title>o1</title>
<text text-anchor="middle" x="439.5" y="-68.3" font-family="Times,serif" font-size="14.00" fill="#aaaaaa">(40, Alice)</text>
</g>
<!-- tx1&#45;&gt;o1 -->
<g id="edge3" class="edge"><title>tx1&#45;&gt;o1</title>
<path fill="none" stroke="#aaaaaa" d="M350.244,-52.3066C362.973,-55.1468 377.793,-58.4539 391.614,-61.5379"/>
<polygon fill="#aaaaaa" stroke="#aaaaaa" points="390.935,-64.9724 401.457,-63.7343 392.46,-58.1404 390.935,-64.9724"/>
</g>
<!-- o2 -->
<g id="node5" class="node"><title>o2</title>
<text text-anchor="middle" x="439.5" y="-14.3" font-family="Times,serif" font-size="14.00" fill="#aaaaaa">(10, WikiLeaks)</text>
</g>
<!-- tx1&#45;&gt;o2 -->
<g id="edge4" class="edge"><title>tx1&#45;&gt;o2</title>
<path fill="none" stroke="#aaaaaa" d="M350.244,-37.6934C358.177,-35.9233 366.923,-33.9717 375.733,-32.0059"/>
<polygon fill="#aaaaaa" stroke="#aaaaaa" points="376.669,-35.3831 385.667,-29.7892 375.145,-28.5511 376.669,-35.3831"/>
</g>
<!-- o0&#45;&gt;tx1 -->
<g id="edge2" class="edge"><title>o0&#45;&gt;tx1</title>
<path fill="none" stroke="#aaaaaa" d="M247.17,-45C255.462,-45 264.302,-45 272.777,-45"/>
<polygon fill="#aaaaaa" stroke="#aaaaaa" points="272.872,-48.5001 282.872,-45 272.872,-41.5001 272.872,-48.5001"/>
</g>
</g>
</svg>
